<?xml version="1.0" encoding="UTF-8"?>
<svg xmlns="http://www.w3.org/2000/svg" width="720" height="1280" viewBox="0 0 720 1280" font-family="-apple-system, 'PingFang SC', 'Helvetica Neue', Arial, sans-serif">
<defs>
<filter id="sh" x="-2%" y="-2%" width="104%" height="120%"><feDropShadow dx="0" dy="1" stdDeviation="1.5" flood-opacity="0.1"/></filter>
</defs><rect x="0" y="140" width="720" height="1080" fill="#dfdcd5"/><g>
<text x="40" y="26" font-size="18" font-weight="600" fill="#ffffff">09:41</text>
<g transform="translate(580,18)">
  <rect x="0" y="0" width="22" height="14" rx="3" fill="none" stroke="#ffffff" stroke-width="1.5"/>
  <rect x="2" y="2" width="16" height="10" rx="1" fill="#ffffff"/>
  <rect x="24" y="4" width="2" height="6" fill="#ffffff"/>
</g>
<g transform="translate(540,22)" fill="#ffffff">
  <rect x="0" y="6" width="3" height="3"/><rect x="5" y="4" width="3" height="5"/>
  <rect x="10" y="2" width="3" height="7"/><rect x="15" y="0" width="3" height="9"/>
</g>
</g><rect x="0" y="40" width="720" height="100" fill="#5288c1"/>
<polyline points="74,84 50,98 74,112" fill="none" stroke="#ffffff" stroke-width="3.5" stroke-linecap="round" stroke-linejoin="round"/>
<g transform="translate(120,90)">
  <circle r="32" fill="#e17076"/>
  <text x="0" y="8" text-anchor="middle" font-size="24" font-weight="700" fill="#ffffff">CP</text>
</g>
<text x="172" y="92" font-size="22" font-weight="700" fill="#ffffff">test-group-CP1</text>
<text x="172" y="120" font-size="16" fill="#cfe1f0">5 membros</text>
<g transform="translate(620,84)" fill="#ffffff">
  <circle r="3" cx="0"/><circle r="3" cx="0" cy="-12"/><circle r="3" cx="0" cy="12"/>
</g>
<g transform="translate(566,90)" fill="none" stroke="#ffffff" stroke-width="2.5">
  <circle r="12" cx="0" cy="0"/>
  <line x1="9" y1="9" x2="16" y2="16" stroke-linecap="round"/>
</g>
<rect x="318" y="160" width="84" height="32" rx="16" fill="rgba(0,0,0,0.25)"/>
<text x="360" y="182" text-anchor="middle" font-size="16" font-weight="600" fill="#ffffff">Hoje</text>
<g transform="translate(28,212)">
  <circle cx="0" cy="20" r="22" fill="#65aadd"/>
  <text x="0" y="28" text-anchor="middle" font-size="22" font-weight="700" fill="#ffffff">B</text>
</g>
<rect x="68" y="212" width="600" height="186" rx="10" fill="#ffffff" filter="url(#sh)"/>
<text x="84" y="242" font-size="18" font-weight="700" fill="#3a9d3a">devil_ai_test_bot</text>
<text x="650" y="242" text-anchor="end" font-size="14" fill="#a0a0a0">13:42</text>
<text x="84" y="274" font-size="20" font-weight="700" fill="#c95820">【三方查询·充值未到账】</text>
<text x="84" y="304" font-size="18" fill="#1a1a1a">平台：CP1</text>
<text x="84" y="332" font-size="18" fill="#1a1a1a">产品：A7X</text>
<text x="84" y="360" font-size="18" fill="#1a1a1a">账户ID：xxxxxx</text>
<g transform="translate(28,408)">
  <circle cx="0" cy="20" r="22" fill="#65aadd"/>
  <text x="0" y="28" text-anchor="middle" font-size="22" font-weight="700" fill="#ffffff">B</text>
</g>
<rect x="68" y="408" width="600" height="186" rx="10" fill="#ffffff" filter="url(#sh)"/>
<text x="84" y="438" font-size="18" font-weight="700" fill="#3a9d3a">devil_ai_test_bot</text>
<text x="650" y="438" text-anchor="end" font-size="14" fill="#a0a0a0">13:48</text>
<text x="84" y="470" font-size="20" font-weight="700" fill="#c95820">【三方查询·提现未到账】</text>
<text x="84" y="500" font-size="18" fill="#1a1a1a">平台：CP1</text>
<text x="84" y="528" font-size="18" fill="#1a1a1a">产品：A7X</text>
<text x="84" y="556" font-size="18" fill="#1a1a1a">账户ID：xxxxxx</text>
<g transform="translate(28,604)">
  <circle cx="0" cy="20" r="22" fill="#65aadd"/>
  <text x="0" y="28" text-anchor="middle" font-size="22" font-weight="700" fill="#ffffff">B</text>
</g>
<rect x="68" y="604" width="600" height="186" rx="10" fill="#ffffff" filter="url(#sh)"/>
<text x="84" y="634" font-size="18" font-weight="700" fill="#3a9d3a">devil_ai_test_bot</text>
<text x="650" y="634" text-anchor="end" font-size="14" fill="#a0a0a0">13:55</text>
<text x="84" y="666" font-size="20" font-weight="700" fill="#c95820">【三方查询·账号重置】</text>
<text x="84" y="696" font-size="18" fill="#1a1a1a">平台：CP1</text>
<text x="84" y="724" font-size="18" fill="#1a1a1a">产品：A7X</text>
<text x="84" y="752" font-size="18" fill="#1a1a1a">账户ID：xxxxxx</text>
<g transform="translate(28,800)">
  <circle cx="0" cy="20" r="22" fill="#65aadd"/>
  <text x="0" y="28" text-anchor="middle" font-size="22" font-weight="700" fill="#ffffff">B</text>
</g>
<rect x="68" y="800" width="600" height="186" rx="10" fill="#ffffff" filter="url(#sh)"/>
<text x="84" y="830" font-size="18" font-weight="700" fill="#3a9d3a">devil_ai_test_bot</text>
<text x="650" y="830" text-anchor="end" font-size="14" fill="#a0a0a0">14:02</text>
<text x="84" y="862" font-size="20" font-weight="700" fill="#c95820">【三方查询·流水查询】</text>
<text x="84" y="892" font-size="18" fill="#1a1a1a">平台：CP1</text>
<text x="84" y="920" font-size="18" fill="#1a1a1a">产品：A7X</text>
<text x="84" y="948" font-size="18" fill="#1a1a1a">账户ID：xxxxxx</text>
<rect x="0" y="1190" width="720" height="90" fill="#ffffff" stroke="#d0d0d0" stroke-width="1"/>
<g transform="translate(40,1226)" fill="none" stroke="#7a8a99" stroke-width="2">
  <circle r="18"/>
  <circle r="6" fill="#7a8a99"/>
</g>
<rect x="80" y="1208" width="560" height="56" rx="28" fill="#f0f0f0"/>
<text x="106" y="1244" font-size="20" fill="#a0a0a0">Mensagem</text>
<g transform="translate(670,1226)" fill="none" stroke="#7a8a99" stroke-width="2.5">
  <path d="M-12,-6 L0,6 L12,-6"/>
</g>
</svg>