<?xml version="1.0" encoding="UTF-8"?>
<svg xmlns="http://www.w3.org/2000/svg" width="720" height="1280" viewBox="0 0 720 1280" font-family="-apple-system, 'Helvetica Neue', Arial, sans-serif">

<rect width="720" height="1280" fill="#eef6fb"/>
<g>
<rect x="0" y="0" width="720" height="40" fill="transparent"/>
<text x="40" y="26" font-size="18" font-weight="600" fill="#1a1a1a">09:41</text>
<g transform="translate(580,18)">
  <rect x="0" y="0" width="22" height="14" rx="3" fill="none" stroke="#1a1a1a" stroke-width="1.5"/>
  <rect x="2" y="2" width="16" height="10" rx="1" fill="#1a1a1a"/>
  <rect x="24" y="4" width="2" height="6" fill="#1a1a1a"/>
</g>
<g transform="translate(540,22)" fill="#1a1a1a">
  <rect x="0" y="6" width="3" height="3"/><rect x="5" y="4" width="3" height="5"/>
  <rect x="10" y="2" width="3" height="7"/><rect x="15" y="0" width="3" height="9"/>
</g>
<g transform="translate(625,20)" fill="#1a1a1a">
  <path d="M0,8 Q6,2 12,8" stroke="#1a1a1a" stroke-width="1.5" fill="none"/>
  <circle cx="6" cy="8" r="1.5"/>
</g>
</g>

<!-- Top bar -->
<rect x="0" y="40" width="720" height="90" fill="#aed4f0"/>
<rect x="36" y="62" width="56" height="46" rx="8" fill="#7fb6e2"/>
<polyline points="68,76 54,85 68,94" fill="none" stroke="#fff" stroke-width="3" stroke-linecap="round" stroke-linejoin="round"/>
<text x="360" y="98" text-anchor="middle" font-size="32" font-weight="700" fill="#1d2226">Saque</text>
<g transform="translate(620,62)">
  <rect x="0" y="0" width="46" height="46" rx="4" fill="#7fb6e2"/>
  <rect x="8" y="10" width="30" height="26" rx="2" fill="#fff"/>
  <rect x="14" y="16" width="18" height="2" fill="#7fb6e2"/>
  <rect x="14" y="22" width="18" height="2" fill="#7fb6e2"/>
  <rect x="14" y="28" width="12" height="2" fill="#7fb6e2"/>
</g>

<!-- Canais de Saque -->
<text x="48" y="186" font-size="22" font-weight="600" fill="#5a6a7a">Canais de Saque</text>
<rect x="44" y="206" width="170" height="74" rx="10" fill="#c2dff5" stroke="#7fb6e2" stroke-width="1.5"/>
<text x="129" y="254" text-anchor="middle" font-size="28" font-weight="700" fill="#1d2226">PIX</text>

<line x1="36" y1="330" x2="684" y2="330" stroke="#cfdde8" stroke-width="1.5"/>

<!-- Saldo -->
<text x="360" y="392" text-anchor="middle" font-size="26" fill="#5a6a7a">Conta Saldo</text>
<text x="360" y="468" text-anchor="middle" font-size="64" font-weight="800" fill="#ec8c2e">R$ 25,28</text>

<!-- Input -->
<rect x="44" y="528" width="632" height="92" rx="8" fill="#fff" stroke="#3a8c3a" stroke-width="2"/>
<text x="78" y="586" font-size="32" font-weight="700" fill="#1d2226">R$  25</text>

<!-- Método de Retirada -->
<text x="48" y="686" font-size="26" font-weight="600" fill="#5a6a7a">Método de Retirada</text>
<rect x="44" y="708" width="170" height="74" rx="10" fill="#c2dff5" stroke="#7fb6e2" stroke-width="1.5"/>
<text x="129" y="756" text-anchor="middle" font-size="28" font-weight="700" fill="#1d2226">CPF</text>
<g transform="translate(630,724)" fill="none" stroke="#ec8c2e" stroke-width="2.5">
  <rect x="0" y="0" width="32" height="32" rx="4"/>
  <path d="M22,2 L30,10 L14,26 L6,28 L8,20 Z"/>
</g>

<!-- TOAST (substitui label NOME) -->
<rect x="80" y="838" width="560" height="72" rx="8" fill="#1a1d22" opacity="0.95"/>
<text x="360" y="884" text-anchor="middle" font-size="26" font-weight="600" fill="#ffffff">
  Deposite mais R$10 para poder sacar
</text>

<!-- NOME field (parcialmente coberto) -->
<text x="48" y="844" font-size="22" fill="#5a6a7a" opacity="0.4">NO</text>
<rect x="44" y="864" width="632" height="74" rx="8" fill="#fff" stroke="#cfdde8" stroke-width="1.5" opacity="0.4"/>
<text x="68" y="912" font-size="28" font-weight="500" fill="#3a4a5a" opacity="0.4">Jose Ronaldo Costa Santos</text>

<!-- CPF input -->
<text x="48" y="982" font-size="22" fill="#5a6a7a">CPF</text>
<rect x="44" y="1002" width="632" height="74" rx="8" fill="#fff" stroke="#cfdde8" stroke-width="1.5"/>
<text x="68" y="1050" font-size="28" font-weight="500" fill="#9aa6b2">09176692400</text>

<!-- Botão -->
<rect x="44" y="1142" width="632" height="86" rx="8" fill="#c2dff5"/>
<text x="360" y="1196" text-anchor="middle" font-size="30" font-weight="800" fill="#ffffff">Retirar Agora</text>

</svg>